# xmcd
#
# Track frame offsets: 
#        150
#        14312
#        23557
#        39567
#        51282
#        60692
#        71212
#        91837
#        107825
#        115832
#        126557
#        138802
#        152165
#        164695
#        177760
#        188885
#        203180
#        215237
#        225287
#        238402
#
# Disc length: 3311 seconds
#
# Revision: 4
# Processed by: cddbd v1.5.2PL0 Copyright (c) Steve Scherf et al.
# Submitted via: ExactAudioCopyFreeDBPlugin 1.0
#
DISCID=220ced14
DTITLE=Various Artist - Great American Train Songs [CMH Records]
DYEAR=1993
DGENRE=Trains
TTITLE0=Merle Travis - John Henry
TTITLE1=The Osbourne Brothers and Mac Wiseman - Midnight Flyer
TTITLE2=Lester Flatt and The Nashville Grass - Bummin' an Old Freight Tr
TTITLE2=ain
TTITLE3=Grandpa Jones - Cannonball Blues
TTITLE4=Jim and Jesse McReynolds - Midnight Train
TTITLE5=Don Reno and Bill Harrell - Bringin' in the Georgia Mail
TTITLE6=Merle Travis and Mac Wiseman - In the Pines
TTITLE7=Donna Stoneman - Orange Blossom Special
TTITLE8=Merle Travis - Nine Pound Hammer
TTITLE9=Mac Wiseman - Train 45
TTITLE10=Tommy Faile - Folsom Prison Blues
TTITLE11=Benny Martin - Freight Train Blues
TTITLE12=Mac Wiseman - Baggage Coach Ahead
TTITLE13=Benny Martin - Wabash Cannonball
TTITLE14=Grandpa Jones - Jesse James
TTITLE15=Mac Wiseman - Streamlined Cannonball
TTITLE16=Dick and Jaquie Schuyler - Drill, Ye Tarriers
TTITLE17=Mac Wiseman - Wreck of the Old '97
TTITLE18=Joe Maphis - Night Train to Memphis
TTITLE19=Carl Story - Heaven Bound Train
EXTD=
EXTT0=
EXTT1=
EXTT2=
EXTT3=
EXTT4=
EXTT5=
EXTT6=
EXTT7=
EXTT8=
EXTT9=
EXTT10=
EXTT11=
EXTT12=
EXTT13=
EXTT14=
EXTT15=
EXTT16=
EXTT17=
EXTT18=
EXTT19=
PLAYORDER=
